PathFileType	4	(X/Y/Z)	pose_F01_0-90.trc
DataRate	CameraRate	NumFrames	NumMarkers	Units	OrigDataRate	OrigDataStartFrame	OrigNumFrames
30	30	10	21	m	30	33	90
Frame#	Time	CHip			RHip			RKnee			RAnkle			RBigToe			RSmallToe			RHeel			LHip			LKnee			LAnkle			LBigToe			LSmallToe			LHeel			Neck			Nose			RShoulder			RElbow			RWrist			LShoulder			LElbow			LWrist			
		X1	Y1	Z1	X2	Y2	Z2	X3	Y3	Z3	X4	Y4	Z4	X5	Y5	Z5	X6	Y6	Z6	X7	Y7	Z7	X8	Y8	Z8	X9	Y9	Z9	X10	Y10	Z10	X11	Y11	Z11	X12	Y12	Z12	X13	Y13	Z13	X14	Y14	Z14	X15	Y15	Z15	X16	Y16	Z16	X17	Y17	Z17	X18	Y18	Z18	X19	Y19	Z19	X20	Y20	Z20	X21	Y21	Z21	
33	1.1	-0.18611724134123356	1.8379337695151456	-0.5950334064202496	-0.20107830376134364	1.8354945586984701	-0.5396891376052618	-0.202748977277684	1.7087074947718464	-0.5245384438582882										-0.2037565728562685	1.590537996091005	-0.5115109213441936	-0.16730836668558355	1.8411731636543818	-0.6576554646326886	-0.1720868910226893	1.7180274322454616	-0.6613316174081256	-0.16269206915056153	1.6102696906214558	-0.6516520913338566	-0.17364050789896662	1.5753550521674697	-0.683280887484583	-0.16340994863386882	1.5840307539750704	-0.6983199638703329	-0.15943084180174588	1.5956249029713798	-0.6325158517987861	-1.5290128930546008	1.8910617268359664	0.8366008162427659	-0.1968445730745159	2.0442304103975664	-0.6350549565766357	-1.7294469569286908	1.8904180127498527	1.1598179818558976	-0.2235597909071743	1.9150290687184752	-0.44157558735760355	-0.24776478345511393	1.9078381902628974	-0.3947944105538467	-0.15061010089374016	1.9857100530098404	-0.7099433328783291	-1.0759207927383576	1.8415249969612706	0.178662375654776	-0.9752832822566112	1.8203149533210838	-0.03863259770663846
34	1.1333333333333333	-0.18482141374490407	1.8405412933873178	-0.6095341546917267	-0.19982536809773352	1.8365092142753097	-0.5458160301556435	-0.20454799501792226	1.7162140356078597	-0.5363961347828555										-0.2037565728562685	1.590537996091005	-0.5115109213441936	-0.1693326584553768	1.8408194265551117	-0.6759812884683271	-0.1706714909415732	1.717235807395388	-0.6628127308682934	-0.15656535021421095	1.606910343762243	-0.6576089004246398	-0.16947938481403926	1.5746107126803113	-0.6874115588467615	-0.15705496798125074	1.5833250032127855	-0.7046108913159407	-0.15512738916840518	1.5937085468944259	-0.636611489519325	-1.4901418552593413	1.8906954521856314	0.776500943284673	-0.19630168512283588	2.0457421727178415	-0.6433664514994772	-1.6794230322855273	1.8884613597071664	1.0777922268160576	-0.21621626270940877	1.907305382873709	-0.46962290162476855	-0.24576420762642756	1.8852082311845642	-0.4283698515147348	-0.14855119221245972	1.987589623751887	-0.7237692609696851	-1.0655692748460959	1.8391964145671957	0.16823913403279694	-1.0049611963019385	1.796797903073609	0.019775488373891485
35	1.1666666666666667	-0.1807896228424029	1.8388324325884229	-0.6261895598743432	-0.19538587861022905	1.8367588061326234	-0.5591270318020783	-0.20454520254885308	1.7146390315337086	-0.5451699614115835										-0.2037565728562685	1.590537996091005	-0.5115109213441936	-0.16548662486157883	1.8380323202054005	-0.6839580830102673	-0.1680248908063334	1.7173928653529271	-0.6658145305625112	-0.1573929290177074	1.6068184189746229	-0.660902336996379	-0.16929369125084515	1.5732526217906093	-0.6877556252778835	-0.157140997846434	1.5834601059274522	-0.7047332283428399	-0.1531526100172436	1.594316118041271	-0.6388780308384573	-1.4637928554984947	1.8890950300253082	0.7355061997967887	-0.19448196086050018	2.045719928380733	-0.65615520907118	-1.6522233645008957	1.8864958683841284	1.0345680064251328	-0.2163478434528549	1.902773934032426	-0.4868239192746519	-0.2437636317977412	1.862578272106231	-0.4619452924756229	-0.14866866718180788	1.9862562195385063	-0.7350909781387385	-1.0618816822602883	1.838569961414333	0.16485708432465027	-0.993634104883615	1.7844105271619277	0.008707999433710988
36	1.2	-0.17765479996523426	1.8363152999961396	-0.6336622592678283	-0.1912639396178317	1.8345066586750958	-0.5721025992902894	-0.2033575709296297	1.7147616710051017	-0.5507867332993887										-0.2037565728562685	1.590537996091005	-0.5115109213441936	-0.15689387476841693	1.8379324391482317	-0.6932994634841136	-0.16446520739390175	1.7174202958926448	-0.6735774603418608	-0.15728335133907356	1.6066683466876317	-0.661079632188264	-0.16900262404849745	1.57486979476277	-0.688447396770431	-0.15573335429127055	1.5836480271171207	-0.7101452375412267	-0.15348126329074468	1.593737204669117	-0.6384938383698489	-1.43892406571728	1.8871208965679314	0.6969286451060037	-0.19400471943011116	2.039002692367784	-0.6632162043867803	-1.638404877560696	1.8840650386463753	1.0125901521526561	-0.2084779321424138	1.9000886809515327	-0.5044459273509957	-0.24176305596905479	1.839948313027898	-0.49552073343651104	-0.14577688103571776	1.9854061315705838	-0.7459618241271314	-1.0543824240026145	1.837499554362574	0.15284007691319051	-0.13947305359643605	1.8685307360534305	-0.8365032675805969
37	1.2333333333333334	-0.17121162655556127	1.8363479976775356	-0.6407308366477996	-0.18895197086179494	1.8361610656386305	-0.5832780638507792	-0.19640043825776235	1.713699292041815	-0.5581187459301151										-0.2037565728562685	1.590537996091005	-0.5115109213441936	-0.15326557311860148	1.8391570981968304	-0.7010911994378589	-0.15791813321230663	1.7156248350559813	-0.6803955639675419	-0.1560064478661598	1.6065273238605988	-0.6663637694027973	-0.16892467107816728	1.5744501331719958	-0.6883055532078532	-0.1549053383959828	1.5834580529272104	-0.7069756777763349	-0.15355310277213713	1.594115399723624	-0.6385622596836777	-1.433642099130806	1.8871647027773983	0.6909324155652977	-0.19097010493307132	2.032435945930205	-0.670927521103505	-1.6218774293757376	1.8819976083246917	0.9876740872565686	-0.2053869971311269	1.8979012954987433	-0.5120333060029938	-0.23085454593536364	1.8337169451725779	-0.5116559126931015	-0.1392396839469935	1.984070952098949	-0.7532039987239044	-1.0341849623596846	1.8339513304594388	0.12595998485257903	-0.136891757194075	1.8647173301255275	-0.8352132855576836
38	1.2666666666666666	-0.16530440844779012	1.8358158772572488	-0.6473479236594226	-0.18723937160637402	1.834357932635095	-0.5854487668469082	-0.19492928299050993	1.7151721072128026	-0.5598581971662854										-0.2037565728562685	1.590537996091005	-0.5115109213441936	-0.14937443717567275	1.8378566222975994	-0.705420184482196	-0.15573073926637115	1.7158218099587588	-0.6827166409058336	-0.15510192264336184	1.6066135231251195	-0.6633516618097968	-0.16677179286072674	1.5746025808828659	-0.6905395573451094	-0.15481853942033302	1.5834211112691075	-0.7070000344426314	-0.15095653347909777	1.5946559280491421	-0.641279350903269	-1.4153249537678527	1.8854140936175463	0.6650090889803565	-0.1877287486845903	2.0305128577181217	-0.6786970358932145	-1.6034591518509855	1.8803833745532215	0.9606036889333823	-0.2032745414288739	1.8975412196353494	-0.5227839344819244	-0.222939743019856	1.8308930718518015	-0.5285085430400939	-0.1354287716435113	1.9838275105219418	-0.7607169528276402	-1.0221298644532653	1.8299983257109738	0.10733758725423695	-0.13584502099238804	1.8568744034377858	-0.8281527367791722
39	1.3	-0.16415640035014611	1.8354419813620444	-0.6525214464362088	-0.18327302721265182	1.8332340324744827	-0.5898446407958532	-0.19279323181805075	1.7182717734062394	-0.5624290832278888										-0.20386470940041057	1.5909705472813944	-0.5115732035908289	-0.14813920365689576	1.8371309448976194	-0.7107969798782262	-0.15593574252302658	1.7182451927493119	-0.6825864161474168	-0.15596596301919258	1.606641480885	-0.6664087123676365	-0.16895645628377645	1.5745829599059697	-0.6883644959655876	-0.15491746459773667	1.583547555412516	-0.7069935044170343	-0.1509633940215629	1.5945391979111159	-0.6412848295064628	-1.4028189379418754	1.8870353171333327	0.6466978086477875	-0.18426077165637852	2.034402119564791	-0.6870129675045515	-1.599163278320474	1.886202118924443	0.9512714606741423	-0.19525508657349824	1.8978149739939352	-0.5407581038162992	-0.21792635312240072	1.833249992910417	-0.5388771297085562	-0.13172000386713398	1.9829578675253718	-0.7685324936898607	-0.9987859686367299	1.8260362772950771	0.07799953650275315	-0.13597644874986498	1.8513119270184608	-0.8275077737470907
40	1.3333333333333333	-0.16419530190007944	1.8339690898550256	-0.6526120123097194	-0.17990744187117066	1.8327433865823286	-0.5976331842187829	-0.19169785732127795	1.7192411757723205	-0.5681631683006285										-0.20385316830819797	1.5911526701059664	-0.5117283424015175	-0.14469615235993094	1.8358364798464477	-0.7184533266630418	-0.1539745565248338	1.720464246190167	-0.6846043039050456	-0.1554327462786767	1.6056350716730112	-0.6627973182958019	-0.16724714263107388	1.577395636171929	-0.6900678161499877	-0.1548472656056568	1.583393411033566	-0.7069324858198238	-0.15104773525615564	1.5921259112566666	-0.6410140655471899	-0.15784877615983145	1.979643449631002	-0.6821187720051457	-0.18300765973341823	2.0402740752959083	-0.6939392889920374	-0.18272604693599562	1.9775305511408245	-0.5902361430728961	-0.19223692168452222	1.903663803407556	-0.540752811301799	-0.20813618715043258	1.8354248241427387	-0.5416520789305771	-0.12733092428317763	1.9840601242568774	-0.773551319132451	-1.0155328556882681	1.8291311911002008	0.10165706329157918	-0.13348328996998096	1.8597752827044964	-0.830903340705708
41	1.3666666666666667	-0.16219388039291363	1.8347060545600393	-0.6548560554466059	-0.1799903663054828	1.8346500179455691	-0.5978897589229206	-0.1897553690160397	1.7205057364159513	-0.5702492786186454										-0.20063932119538466	1.5906805664384813	-0.5195289620707539	-0.1455419762219403	1.8363993622649322	-0.7216019694907929	-0.15322207540963145	1.7215644294081078	-0.6816344943740528	-0.15555180061169238	1.6068510580141844	-0.662471001791174	-0.16763457732620204	1.5798947526166893	-0.6894266981454396	-0.15636476468764327	1.5845222261921064	-0.7013244784788233	-0.15129360880994783	1.5939466408741318	-0.6407824627222156	-0.1565789226777798	1.981136884224959	-0.6879055519973198	-0.18059481762693116	2.044825684914993	-0.6963845360965646	-0.18228158098948447	1.9794064577397443	-0.5987987161578132	-0.19045010506272575	1.9075458147292124	-0.5439292336568718	-0.2040651239262543	1.8458499799300099	-0.5476770887402244	-0.12872459245431297	1.9847125085628703	-0.7797056258729683	-1.0163034698880515	1.8299402221391479	0.09881660955216219	-0.13553355144993684	1.8609643545878911	-0.8403218589186029
42	1.4	-0.1616967554574276	1.8394747984177897	-0.6556627335568637	-0.17767144952036779	1.8387816198157871	-0.60069371661013	-0.18971145130659936	1.7203007668770185	-0.5703463430734177										-0.1963529200799571	1.5933510656137109	-0.5247279545731524	-0.1451143005586739	1.8385676128168373	-0.7220701770431928	-0.15087055961014023	1.7231567153679306	-0.6841615887351731	-0.15537783931270596	1.6055077395430313	-0.6628269278093111	-0.16709868941898826	1.5801027266662597	-0.6902765358755094	-0.1569715386561116	1.583199188299197	-0.7046041933197588	-0.15220899711875252	1.5912723503549182	-0.6436195271401097	-0.15629444666965286	1.983713432396346	-0.6879757835736651	-0.17893431632148885	2.049052640004337	-0.701910760880757	-0.183050865956114	1.9818825145355268	-0.6024317700035724	-0.19026572682754014	1.9101717635157744	-0.5528663800992015	-0.20599743357561665	1.8540471178017526	-0.5465581716459689	-0.12566914541392712	1.9869159331793762	-0.7791365035785547	-1.0193572542739315	1.8352634856096555	0.09925924901216768	-0.13859908457757714	1.8674460823087171	-0.8387125663688194
